<?xml version="1.0" encoding="UTF-8"?>
<svg width="32" height="32" viewBox="0 0 32 32" fill="none" xmlns="http://www.w3.org/2000/svg">
    <g transform="scale(0.0625)">
        <!-- Scale down the original 512x512 viewBox to 32x32 -->
        <path d="M256.5 64C123.5 64 16 164.5 16 288.5c0 41.5 12.5 81.5 35.5 115.5 2 3 2.5 7 1 10.5l-23.5 70.5c-3 8.5 5.5 17 14 14l70.5-23.5c3.5-1 7-0.5 10.5 1 34 23 74 35.5 115.5 35.5 133 0 240.5-100.5 240.5-224.5S389.5 64 256.5 64z" fill="#1677ff"/>
        <path d="M128 288.5c0-17.7 14.3-32 32-32s32 14.3 32 32-14.3 32-32 32-32-14.3-32-32zm128 0c0-17.7 14.3-32 32-32s32 14.3 32 32-14.3 32-32 32-32-14.3-32-32zm128 0c0-17.7 14.3-32 32-32s32 14.3 32 32-14.3 32-32 32-32-14.3-32-32z" fill="white"/>
    </g>
</svg>
